<svg width="157" height="42" viewBox="0 0 157 42" fill="none" xmlns="http://www.w3.org/2000/svg">
<path d="M12.25 21H14.3153C15.1495 21 15.8678 21.5889 16.0314 22.4068L17.5 29.75L9.72072 34.9361C8.55776 35.7115 7 34.8778 7 33.4801V26.25C7 23.3504 9.35051 21 12.25 21Z" fill="#3056D3"/>
<path d="M29.75 21H27.6847C26.8504 21 26.1322 21.5889 25.9686 22.4068L24.5 29.75L32.2793 34.9361C33.4423 35.7115 35 34.8778 35 33.4801V26.25C35 23.3504 32.6496 21 29.75 21Z" fill="#3056D3"/>
<path d="M23.04 35H18.959C18.1301 35 17.4078 35.5915 17.4773 36.4175C17.5867 37.7184 18.2004 39.5369 20.6569 40.1718C20.8805 40.2295 21.1185 40.2295 21.3422 40.1718C23.7987 39.5369 24.4124 37.7184 24.5218 36.4175C24.5912 35.5915 23.8688 35 23.04 35Z" fill="#3056D3"/>
<path d="M12.2513 13.9996C13.5635 10.0632 17.827 5.63498 19.8784 3.66536C20.5108 3.05816 21.4919 3.05816 22.1241 3.66536C24.1757 5.63498 28.4392 10.0632 29.7512 13.9996C31.1044 18.0592 29.4551 25.3515 28.2264 29.7013C27.6205 31.8461 25.6346 33.2496 23.406 33.2496H18.5814C16.36 33.2496 14.379 31.8552 13.77 29.7188C12.5353 25.3872 10.8796 18.114 12.2513 13.9996Z" fill="#98AAE9"/>
<path d="M21 21C22.933 21 24.5 19.433 24.5 17.5C24.5 15.567 22.933 14 21 14C19.067 14 17.5 15.567 17.5 17.5C17.5 19.433 19.067 21 21 21Z" fill="#3056D3"/>
<path d="M59.1836 15.8162H63.1129C63.0358 12.0081 59.789 9.31152 54.9902 9.31152C50.2575 9.31152 46.7025 11.975 46.7135 15.9593C46.7135 19.1952 49.0138 21.0552 52.7229 22.0128L55.2874 22.6732C57.7198 23.2895 59.3267 24.0489 59.3377 25.7989C59.3267 27.725 57.4996 29.0128 54.8361 29.0128C52.2827 29.0128 50.3015 27.8681 50.1364 25.5018H46.1191C46.2842 29.9813 49.6191 32.5018 54.8691 32.5018C60.2732 32.5018 63.41 29.8052 63.421 25.832C63.41 21.9247 60.1852 20.1417 56.7952 19.3383L54.682 18.8099C52.833 18.3697 50.8298 17.5883 50.8518 15.7062C50.8629 14.0112 52.3817 12.7675 54.9352 12.7675C57.3676 12.7675 58.9745 13.9011 59.1836 15.8162Z" fill="white"/>
<path d="M75.3271 15.2549H71.9922V11.2046H68.0079V15.2549H65.6085V18.3367H68.0079V27.736C67.9859 30.9169 70.2972 32.4798 73.2909 32.3917C74.4246 32.3587 75.206 32.1386 75.6353 31.9955L74.9639 28.8807C74.7437 28.9357 74.2925 29.0348 73.7972 29.0348C72.7956 29.0348 71.9922 28.6826 71.9922 27.0757V18.3367H75.3271V15.2549Z" fill="white"/>
<path d="M83.524 32.5018C86.1765 32.5018 87.7614 31.2581 88.4879 29.8382H88.6199V32.1606H92.4501V20.8461C92.4501 16.3776 88.807 15.0348 85.5822 15.0348C82.0272 15.0348 79.2976 16.6197 78.4171 19.7015L82.1372 20.2298C82.5334 19.0741 83.6561 18.0835 85.6042 18.0835C87.4533 18.0835 88.4658 19.0301 88.4658 20.692V20.7581C88.4658 21.9027 87.2662 21.9577 84.2834 22.2769C81.0036 22.6291 77.8668 23.6087 77.8668 27.4169C77.8668 30.7408 80.2992 32.5018 83.524 32.5018ZM84.5586 29.5741C82.8967 29.5741 81.708 28.8147 81.708 27.3508C81.708 25.821 83.0397 25.1826 84.8228 24.9294C85.8684 24.7864 87.9595 24.5222 88.4768 24.104V26.0961C88.4768 27.9782 86.958 29.5741 84.5586 29.5741Z" fill="white"/>
<path d="M96.4564 32.1606H100.441V22.2219C100.441 20.0757 102.059 18.5568 104.249 18.5568C104.92 18.5568 105.757 18.6779 106.098 18.7879V15.1228C105.735 15.0568 105.107 15.0128 104.667 15.0128C102.73 15.0128 101.112 16.1134 100.496 18.0725H100.32V15.2549H96.4564V32.1606Z" fill="white"/>
<path d="M118.095 15.2549H114.76V11.2046H110.776V15.2549H108.376V18.3367H110.776V27.736C110.754 30.9169 113.065 32.4798 116.059 32.3917C117.192 32.3587 117.974 32.1386 118.403 31.9955L117.732 28.8807C117.511 28.9357 117.06 29.0348 116.565 29.0348C115.563 29.0348 114.76 28.6826 114.76 27.0757V18.3367H118.095V15.2549Z" fill="white"/>
<path d="M132.202 25.0505C132.202 27.626 130.364 28.9027 128.603 28.9027C126.688 28.9027 125.411 27.5489 125.411 25.4027V15.2549H121.427V26.0191C121.427 30.0804 123.738 32.3807 127.062 32.3807C129.594 32.3807 131.377 31.0489 132.147 29.1559H132.323V32.1606H136.186V15.2549H132.202V25.0505Z" fill="white"/>
<path d="M140.283 38.5002H144.268V29.4971H144.433C145.06 30.7298 146.37 32.4577 149.276 32.4577C153.26 32.4577 156.243 29.2989 156.243 23.7298C156.243 18.0945 153.172 15.0348 149.265 15.0348C146.282 15.0348 145.038 16.8288 144.433 18.0505H144.202V15.2549H140.283V38.5002ZM144.191 23.7077C144.191 20.4279 145.599 18.3037 148.164 18.3037C150.816 18.3037 152.181 20.5599 152.181 23.7077C152.181 26.8776 150.794 29.1889 148.164 29.1889C145.621 29.1889 144.191 26.9876 144.191 23.7077Z" fill="white"/>
</svg>
